<svg xmlns="http://www.w3.org/2000/svg" viewBox="235.094 969.6 84.928 58.506"><defs><style>.a{fill:#fff;}</style></defs><g transform="translate(235.094 902.694)"><path class="a" d="M75.305,92.917c4.77-.394,8.005-2.562,9.25-5.5-1.721,1.057-7.062,2.209-10.011,1.112-.145-.693-.306-1.351-.465-1.946-2.248-8.253-9.943-14.9-18.006-14.1.652-.263,1.314-.509,1.974-.729.888-.318,6.095-1.165,5.275-3-.691-1.617-7.053,1.222-8.251,1.593,1.581-.595,4.2-1.618,4.477-3.435a12.63,12.63,0,0,0-6.639,3.143,4.565,4.565,0,0,0,1.274-2.521C47.72,71.656,43.946,79.979,40.891,88.052a31.668,31.668,0,0,0-6.432-5.172,167.666,167.666,0,0,0-21.79-9.591c-.308,3.323,1.643,7.74,7.266,10.678a17.782,17.782,0,0,0-5.228.628c.726,3.806,3.1,6.942,9.511,8.459-2.932.194-4.447.861-5.821,2.3,1.335,2.647,4.594,5.763,10.456,5.123-6.517,2.809-2.657,8.011,2.646,7.235a22.519,22.519,0,0,1-31.5.842c21.384,29.138,67.868,17.232,74.795-10.833,5.19.044,8.241-1.8,10.133-3.829A20.674,20.674,0,0,1,75.305,92.917Z"/></g></svg>