<svg xmlns="http://www.w3.org/2000/svg" viewBox="157.813 969.6 49 58.8"><defs><style>.a{fill:#fff;}</style></defs><g transform="translate(157.813 969.6)"><path class="a" d="M48.947,43.01H45.72l.015-1.874a1.522,1.522,0,0,1,1.52-1.514h.206a1.524,1.524,0,0,1,1.524,1.514Zm-12.1-4.017a1.379,1.379,0,0,0-1.488,1.224v9.116a1.52,1.52,0,0,0,2.981,0V40.217A1.381,1.381,0,0,0,36.843,38.994Zm19.657-5.1V51.236A7.823,7.823,0,0,1,48.484,58.8H15.517A7.823,7.823,0,0,1,7.5,51.236V33.894a7.823,7.823,0,0,1,8.017-7.564H48.484A7.823,7.823,0,0,1,56.5,33.894ZM17.716,53.119l0-18.268H21.8V32.146L10.906,32.13v2.661l3.4.01V53.119Zm12.25-15.547H26.559v9.755a17.289,17.289,0,0,1-.005,2.366c-.277.757-1.522,1.56-2.008.082a19.413,19.413,0,0,1-.011-2.38l-.014-9.822H21.133l.01,9.668c0,1.482-.033,2.587.012,3.09.083.887.054,1.92.876,2.511,1.533,1.1,4.471-.165,5.206-1.743l-.007,2.014,2.736,0V37.573Zm10.9,11.171-.007-8.119c0-3.094-2.317-4.947-5.459-2.443l.014-6.036-3.4.005-.016,20.835,2.8-.041.255-1.3C38.623,54.927,40.871,52.679,40.866,48.743Zm10.663-1.076-2.555.014c0,.1-.005.218-.007.346v1.426a1.4,1.4,0,0,1-1.4,1.384h-.5a1.4,1.4,0,0,1-1.4-1.384V45.7h5.85V43.5a34.738,34.738,0,0,0-.174-4.138c-.419-2.91-4.5-3.372-6.567-1.882a3.846,3.846,0,0,0-1.429,1.924,10.832,10.832,0,0,0-.434,3.433v4.841C42.92,55.727,52.7,54.589,51.529,47.667Zm-13.1-26.282a2.319,2.319,0,0,0,.819,1.035,2.373,2.373,0,0,0,1.394.387,2.168,2.168,0,0,0,1.305-.406,3.131,3.131,0,0,0,.956-1.222l-.065,1.337h3.8V6.363h-2.99v12.57a1.245,1.245,0,0,1-2.49,0V6.363h-3.12V17.257c0,1.388.025,2.313.067,2.782A4.683,4.683,0,0,0,38.424,21.385ZM26.915,12.263A13.44,13.44,0,0,1,27.3,8.629a3.888,3.888,0,0,1,3.971-2.891,4.711,4.711,0,0,1,2.26.51,3.765,3.765,0,0,1,1.457,1.325,5.227,5.227,0,0,1,.7,1.682,13.412,13.412,0,0,1,.19,2.645v4.085a22.113,22.113,0,0,1-.177,3.3,5.23,5.23,0,0,1-.749,1.963,3.55,3.55,0,0,1-1.462,1.343,4.664,4.664,0,0,1-2.061.433,5.723,5.723,0,0,1-2.2-.369,3.014,3.014,0,0,1-1.4-1.12,4.971,4.971,0,0,1-.713-1.811,17.453,17.453,0,0,1-.211-3.184l0-4.276Zm2.975,6.416a1.516,1.516,0,1,0,3.018,0v-8.6a1.516,1.516,0,1,0-3.018,0ZM19.379,23.02h3.583l0-12.387L27.2.022H23.281L21.03,7.9,18.747,0H14.869l4.5,10.639Z" transform="translate(-7.5)"/></g></svg>