<svg xmlns="http://www.w3.org/2000/svg" viewBox="79.107 900.886 207.387 39.967"><defs><style>.a,.b,.c{fill:#fff;}.a{opacity:0.45;}.c{font-size:22px;font-family:Bebas;}</style></defs><g transform="translate(79.107 900.886)"><g transform="translate(0)"><path class="a" d="M19.984,0A19.984,19.984,0,1,0,39.967,19.984,19.971,19.971,0,0,0,19.984,0ZM15.1,28.477V11.491l14.655,8.493Z"/><path class="b" d="M22.386,5.4A16.986,16.986,0,1,0,39.372,22.386,16.986,16.986,0,0,0,22.386,5.4ZM18.223,29.6V15.17l12.49,7.216Z" transform="translate(-2.402 -2.402)"/><path class="a" d="M36,0a19.984,19.984,0,1,1,0,39.967H213.411L223.4,0H36Z" transform="translate(-16.016)"/></g><text class="c" transform="translate(73.829 30.996)"><tspan x="0" y="0">TEASER</tspan></text></g></svg>